<svg version="1.1" id="Capa_1" xmlns="http://www.w3.org/2000/svg" xmlns:xlink="http://www.w3.org/1999/xlink" x="0px" y="0px" viewBox="0 0 69.8 72.7" style="enable-background:new 0 0 69.8 72.7;" xml:space="preserve"><style type="text/css">	.st0{fill:#5C3BD2;}</style><g><path class="st0" d="M60.4,31.4l-1.7-2.1l-0.9-1.1l-3.5-4.4c0,0,0,0,0,0l-4.4-5.5c0,0,0,0,0,0l-3.2-4c0,0,0,0,0,0l-4.4-5.5c0,0,0,0,0,0l-1.6-2l-1-1.3l0,0l-4.2-5.2c-0.3-0.3-0.7-0.3-1,0.1l-11.4,19l-0.8,1.3L9.2,42.5c-0.4,0.7-0.4,1.6,0.1,2.2l20.8,25.8c2.4,3,7.2,2.7,9.2-0.6l21.3-35.6C61.1,33.4,61,32.3,60.4,31.4z"/></g></svg>
