<svg xmlns="http://www.w3.org/2000/svg" viewBox="0 0 27.879 27.88"><defs><style>.cls-1{fill:#fff;}</style></defs><title>logos</title><g id="Layer_1" data-name="Layer 1"><path class="cls-1" d="M15.447,15.447a5.029,5.029,0,0,0-1.571-.693l-1.611-.533-.964,2.91,1.871.619a5.646,5.646,0,0,0,1.2.325,1.434,1.434,0,0,0,.942-.171,1.411,1.411,0,0,0,.615-.82,1.491,1.491,0,0,0,.036-.911A1.415,1.415,0,0,0,15.447,15.447Z"/><path class="cls-1" d="M16.336,10.81a15.837,15.837,0,0,0-1.54-.551L13.7,9.9l-.833,2.516,1.277.423a11,11,0,0,0,1.283.382,1.524,1.524,0,0,0,1.016-.095,1.211,1.211,0,0,0,.6-.744,1.258,1.258,0,0,0-.006-.91A1.325,1.325,0,0,0,16.336,10.81Z"/><path class="cls-1" d="M18.944,0H8.936A8.936,8.936,0,0,0,0,8.936V18.944A8.936,8.936,0,0,0,8.936,27.88H18.944a8.935,8.935,0,0,0,8.935-8.936V8.936A8.935,8.935,0,0,0,18.944,0Zm.666,12.882a2.718,2.718,0,0,1-2.31,1.854,3.015,3.015,0,0,1,1.2,1.493,2.758,2.758,0,0,1-.008,1.818,3.4,3.4,0,0,1-.823,1.329,3.064,3.064,0,0,1-1.314.808,3.265,3.265,0,0,1-1.644.028c-.237-.051-.7-.184-1.341-.381l-.658,1.988-1.649-.546.653-1.971-1.072-.355-.653,1.971-1.627-.539.653-1.971-2.676-.886.6-1.811,1.079.357a.793.793,0,0,0,1-.5l1.9-5.754a.792.792,0,0,0-.5-1L9.345,8.453l.6-1.811,2.676.887.692-2.09,1.628.539-.692,2.09,1.072.355.692-2.09,1.648.546-.7,2.1a10.031,10.031,0,0,1,1.212.509A2.89,2.89,0,0,1,19.7,11.5,2.6,2.6,0,0,1,19.61,12.882Z"/></g></svg>