<svg xmlns="http://www.w3.org/2000/svg" viewBox="0 0 27.879 27.88"><defs><style>.cls-1{fill:#fff;}</style></defs><title>logos</title><g id="Layer_1" data-name="Layer 1"><path class="cls-1" d="M18.944,0H8.936A8.936,8.936,0,0,0,0,8.936V18.944A8.936,8.936,0,0,0,8.936,27.88H18.944a8.935,8.935,0,0,0,8.935-8.936V8.936A8.935,8.935,0,0,0,18.944,0Zm-4.8,5.583,4.905,8.047-4.8-1.989-.109-.05ZM13.73,22.3l-5.153-7.1,5.153,2.971Zm0-5.293L8.882,14.209,13.731,12.2Zm0-5.412-.108.05-4.8,1.989,4.9-8.047Zm.417.607L19,14.209,14.148,17Zm0,10.1V18.165L19.3,15.194Z"/></g></svg>