<svg xmlns="http://www.w3.org/2000/svg" xmlns:xlink="http://www.w3.org/1999/xlink" viewBox="0 0 74.869 67.201"><defs><style>.cls-1{isolation:isolate;}.cls-2{fill:url(#Degradado_sin_nombre_24);}.cls-3{mix-blend-mode:multiply;fill:url(#Degradado_sin_nombre_43);}</style><linearGradient id="Degradado_sin_nombre_24" x1="49.932" y1="-2.731" x2="51.522" y2="70.762" gradientUnits="userSpaceOnUse"><stop offset="0.037" stop-color="#953ef7"/><stop offset="0.395" stop-color="#9240f7"/><stop offset="0.652" stop-color="#8946f8"/><stop offset="0.877" stop-color="#7951f8"/><stop offset="1" stop-color="#6d59f9"/></linearGradient><linearGradient id="Degradado_sin_nombre_43" x1="33.579" y1="44.988" x2="59.123" y2="28.129" gradientUnits="userSpaceOnUse"><stop offset="0" stop-color="#9e95bc"/><stop offset="0.201" stop-color="#9387ca" stop-opacity="0.772"/><stop offset="0.588" stop-color="#7f6fe3" stop-opacity="0.359"/><stop offset="0.864" stop-color="#725ff3" stop-opacity="0.1"/><stop offset="1" stop-color="#6d59f9" stop-opacity="0"/></linearGradient></defs><title>eyewallet</title><g class="cls-1"><g id="Capa_8" data-name="Capa 8"><g id="Capa_5" data-name="Capa 5"><g id="Capa_6" data-name="Capa 6"><path class="cls-2" d="M74.364,29.056l-1.556-1.943-.8-1-3.276-4.1,0,0-4.116-5.144-.011-.016-2.938-3.67,0,0L57.568,8.067h0L56.058,6.18l-.937-1.171h0L51.274.2a.539.539,0,0,0-.882.06L39.779,17.88l-.711,1.18L26.9,39.262a1.788,1.788,0,0,0,.137,2.044L46.31,65.261a5.176,5.176,0,0,0,8.482-.579l19.75-33A2.305,2.305,0,0,0,74.364,29.056Z"/><path class="cls-3" d="M74.364,29.056l-1.556-1.943h0S56.651,6.391,56.058,6.18L51.274.2a.539.539,0,0,0-.882.06L39.779,17.88l-.711,1.18c-5.444,10.389-10.235,13.982.113,26.219l15.611,19.4,19.75-33A2.305,2.305,0,0,0,74.364,29.056Z"/></g></g></g></g></svg>