<svg xmlns="http://www.w3.org/2000/svg" xmlns:xlink="http://www.w3.org/1999/xlink" viewBox="0 0 74.869 67.201"><defs><style>.cls-1{isolation:isolate;}.cls-2{fill:url(#Degradado_sin_nombre_20);}.cls-3{mix-blend-mode:multiply;fill:url(#Degradado_sin_nombre_43);}</style><linearGradient id="Degradado_sin_nombre_20" x1="36.611" y1="-2.731" x2="38.201" y2="70.762" gradientUnits="userSpaceOnUse"><stop offset="0" stop-color="#6dd7eb"/><stop offset="0.183" stop-color="#6dd4eb"/><stop offset="0.328" stop-color="#6dcaec"/><stop offset="0.459" stop-color="#6db9ee"/><stop offset="0.582" stop-color="#6da2f1"/><stop offset="0.7" stop-color="#6d83f4"/><stop offset="0.813" stop-color="#6d5ff8"/><stop offset="0.828" stop-color="#6d59f9"/></linearGradient><linearGradient id="Degradado_sin_nombre_43" x1="20.258" y1="44.988" x2="45.802" y2="28.129" gradientUnits="userSpaceOnUse"><stop offset="0" stop-color="#9e95bc"/><stop offset="0.201" stop-color="#9387ca" stop-opacity="0.772"/><stop offset="0.588" stop-color="#7f6fe3" stop-opacity="0.359"/><stop offset="0.864" stop-color="#725ff3" stop-opacity="0.1"/><stop offset="1" stop-color="#6d59f9" stop-opacity="0"/></linearGradient></defs><title>eyewallet</title><g class="cls-1"><g id="Capa_8" data-name="Capa 8"><g id="Capa_5" data-name="Capa 5"><g id="Capa_6" data-name="Capa 6"><path class="cls-2" d="M61.043,29.056l-1.556-1.943-.8-1-3.276-4.1,0,0-4.116-5.144-.011-.016-2.938-3.67,0,0L44.247,8.067h0L42.737,6.18,41.8,5.009h0L37.953.2a.539.539,0,0,0-.882.06L26.458,17.88l-.711,1.18-12.169,20.2a1.788,1.788,0,0,0,.137,2.044L32.989,65.261a5.176,5.176,0,0,0,8.482-.579l19.75-33A2.305,2.305,0,0,0,61.043,29.056Z"/><path class="cls-3" d="M61.043,29.056l-1.556-1.943h0S43.33,6.391,42.737,6.18L37.953.2a.539.539,0,0,0-.882.06L26.458,17.88l-.711,1.18C20.3,29.449,15.512,33.042,25.86,45.279l15.611,19.4,19.75-33A2.305,2.305,0,0,0,61.043,29.056Z"/></g></g></g></g></svg>