<svg xmlns="http://www.w3.org/2000/svg" xmlns:xlink="http://www.w3.org/1999/xlink" viewBox="0 0 1920 1169.579"><defs><style>.cls-1{isolation:isolate;}.cls-2{fill:url(#Degradado_sin_nombre_11);}.cls-3{opacity:0.65;fill:url(#Degradado_sin_nombre_18);}.cls-3,.cls-4{mix-blend-mode:overlay;}.cls-4{opacity:0.27;}.cls-5{fill:url(#Degradado_sin_nombre_15);}.cls-6{fill:url(#Degradado_sin_nombre_15-3);}.cls-7{fill:url(#Degradado_sin_nombre_15-4);}.cls-8{fill:url(#Degradado_sin_nombre_15-5);}.cls-9{fill:url(#Degradado_sin_nombre_15-7);}.cls-10{opacity:0.53;}.cls-11{fill:url(#Degradado_sin_nombre_17);}.cls-12{fill:url(#Degradado_sin_nombre_17-2);}.cls-13{fill:url(#Degradado_sin_nombre_17-3);}.cls-14{fill:url(#Degradado_sin_nombre_17-4);}.cls-15{fill:url(#Degradado_sin_nombre_17-5);}.cls-16{fill:url(#Degradado_sin_nombre_17-6);}.cls-17{fill:url(#Degradado_sin_nombre_17-7);}.cls-18{fill:url(#Degradado_sin_nombre_17-8);}.cls-19{fill:url(#Degradado_sin_nombre_17-9);}.cls-20{fill:url(#Degradado_sin_nombre_17-10);}.cls-21{fill:url(#Degradado_sin_nombre_17-11);}.cls-22{fill:url(#Degradado_sin_nombre_17-12);}.cls-23{fill:url(#Degradado_sin_nombre_17-13);}.cls-24{fill:url(#Degradado_sin_nombre_17-14);}.cls-25{fill:url(#Degradado_sin_nombre_17-15);}.cls-26{fill:url(#Degradado_sin_nombre_17-16);}.cls-27{fill:url(#Degradado_sin_nombre_17-17);}.cls-28{fill:url(#Degradado_sin_nombre_17-18);}.cls-29{fill:url(#Degradado_sin_nombre_17-19);}.cls-30{fill:url(#Degradado_sin_nombre_17-20);}.cls-31{fill:url(#Degradado_sin_nombre_17-21);}.cls-32{fill:url(#Degradado_sin_nombre_17-22);}.cls-33{fill:url(#Degradado_sin_nombre_17-23);}.cls-34{fill:url(#Degradado_sin_nombre_17-24);}.cls-35{fill:url(#Degradado_sin_nombre_17-25);}.cls-36{fill:url(#Degradado_sin_nombre_17-26);}.cls-37{fill:url(#Degradado_sin_nombre_17-27);}.cls-38{fill:url(#Degradado_sin_nombre_17-28);}.cls-39{fill:url(#Degradado_sin_nombre_17-29);}.cls-40{fill:url(#Degradado_sin_nombre_17-30);}</style><linearGradient id="Degradado_sin_nombre_11" x1="1633.717" y1="-995.479" x2="462.658" y2="1753.964" gradientUnits="userSpaceOnUse"><stop offset="0" stop-color="#5959f9"/><stop offset="0.132" stop-color="#5657ef"/><stop offset="0.352" stop-color="#4f53d6"/><stop offset="0.634" stop-color="#434bac"/><stop offset="0.963" stop-color="#324172"/><stop offset="1" stop-color="#30406b"/></linearGradient><linearGradient id="Degradado_sin_nombre_18" x1="12925.681" y1="3279.851" x2="13630.469" y2="4071.485" gradientTransform="translate(11083.406 -9319.455) rotate(117.948)" gradientUnits="userSpaceOnUse"><stop offset="0" stop-color="#fff"/><stop offset="0.123" stop-color="#fffffe" stop-opacity="0.778"/><stop offset="0.27" stop-color="#fffffc" stop-opacity="0.537"/><stop offset="0.395" stop-color="#fffffb" stop-opacity="0.36"/><stop offset="0.492" stop-color="#fffffa" stop-opacity="0.252"/><stop offset="0.548" stop-color="#fffffa" stop-opacity="0.212"/><stop offset="0.628" stop-color="#fffffa" stop-opacity="0.145"/><stop offset="0.754" stop-color="#fffff9" stop-opacity="0.065"/><stop offset="0.878" stop-color="#fffff9" stop-opacity="0.016"/><stop offset="1" stop-color="#fffff9" stop-opacity="0"/></linearGradient><linearGradient id="Degradado_sin_nombre_15" x1="519.37" y1="82.519" x2="652.979" y2="312.995" gradientUnits="userSpaceOnUse"><stop offset="0" stop-color="#fff"/><stop offset="0.128" stop-color="#fffffe" stop-opacity="0.898"/><stop offset="0.403" stop-color="#fffffd" stop-opacity="0.636"/><stop offset="0.799" stop-color="#fffffa" stop-opacity="0.221"/><stop offset="1" stop-color="#fffff9" stop-opacity="0"/></linearGradient><linearGradient id="Degradado_sin_nombre_15-3" x1="519.37" y1="82.519" x2="652.979" y2="312.994" xlink:href="#Degradado_sin_nombre_15"/><linearGradient id="Degradado_sin_nombre_15-4" x1="519.37" y1="82.519" x2="652.979" y2="312.994" xlink:href="#Degradado_sin_nombre_15"/><linearGradient id="Degradado_sin_nombre_15-5" x1="519.37" y1="82.519" x2="652.979" y2="312.994" xlink:href="#Degradado_sin_nombre_15"/><linearGradient id="Degradado_sin_nombre_15-7" x1="519.37" y1="82.519" x2="652.979" y2="312.995" xlink:href="#Degradado_sin_nombre_15"/><linearGradient id="Degradado_sin_nombre_17" x1="188.586" y1="379.188" x2="382.319" y2="551.21" gradientUnits="userSpaceOnUse"><stop offset="0" stop-color="#fff"/><stop offset="0.678" stop-color="#fffffb" stop-opacity="0.309"/><stop offset="1" stop-color="#fffff9" stop-opacity="0"/></linearGradient><linearGradient id="Degradado_sin_nombre_17-2" x1="199.056" y1="367.397" x2="392.789" y2="539.419" xlink:href="#Degradado_sin_nombre_17"/><linearGradient id="Degradado_sin_nombre_17-3" x1="209.526" y1="355.606" x2="403.259" y2="527.627" xlink:href="#Degradado_sin_nombre_17"/><linearGradient id="Degradado_sin_nombre_17-4" x1="219.996" y1="343.814" x2="413.729" y2="515.836" xlink:href="#Degradado_sin_nombre_17"/><linearGradient id="Degradado_sin_nombre_17-5" x1="230.466" y1="332.023" x2="424.199" y2="504.045" xlink:href="#Degradado_sin_nombre_17"/><linearGradient id="Degradado_sin_nombre_17-6" x1="240.936" y1="320.232" x2="434.669" y2="492.253" xlink:href="#Degradado_sin_nombre_17"/><linearGradient id="Degradado_sin_nombre_17-7" x1="176.638" y1="392.645" x2="370.371" y2="564.666" xlink:href="#Degradado_sin_nombre_17"/><linearGradient id="Degradado_sin_nombre_17-8" x1="187.108" y1="380.853" x2="380.841" y2="552.875" xlink:href="#Degradado_sin_nombre_17"/><linearGradient id="Degradado_sin_nombre_17-9" x1="197.578" y1="369.062" x2="391.311" y2="541.084" xlink:href="#Degradado_sin_nombre_17"/><linearGradient id="Degradado_sin_nombre_17-10" x1="208.048" y1="357.27" x2="401.781" y2="529.292" xlink:href="#Degradado_sin_nombre_17"/><linearGradient id="Degradado_sin_nombre_17-11" x1="218.518" y1="345.479" x2="412.251" y2="517.501" xlink:href="#Degradado_sin_nombre_17"/><linearGradient id="Degradado_sin_nombre_17-12" x1="228.987" y1="333.688" x2="422.721" y2="505.709" xlink:href="#Degradado_sin_nombre_17"/><linearGradient id="Degradado_sin_nombre_17-13" x1="164.69" y1="406.101" x2="358.423" y2="578.122" xlink:href="#Degradado_sin_nombre_17"/><linearGradient id="Degradado_sin_nombre_17-14" x1="175.16" y1="394.309" x2="368.893" y2="566.331" xlink:href="#Degradado_sin_nombre_17"/><linearGradient id="Degradado_sin_nombre_17-15" x1="185.63" y1="382.518" x2="379.363" y2="554.54" xlink:href="#Degradado_sin_nombre_17"/><linearGradient id="Degradado_sin_nombre_17-16" x1="196.099" y1="370.727" x2="389.833" y2="542.748" xlink:href="#Degradado_sin_nombre_17"/><linearGradient id="Degradado_sin_nombre_17-17" x1="206.569" y1="358.935" x2="400.303" y2="530.957" xlink:href="#Degradado_sin_nombre_17"/><linearGradient id="Degradado_sin_nombre_17-18" x1="217.039" y1="347.144" x2="410.772" y2="519.166" xlink:href="#Degradado_sin_nombre_17"/><linearGradient id="Degradado_sin_nombre_17-19" x1="152.742" y1="419.557" x2="346.475" y2="591.578" xlink:href="#Degradado_sin_nombre_17"/><linearGradient id="Degradado_sin_nombre_17-20" x1="163.212" y1="407.765" x2="356.945" y2="579.787" xlink:href="#Degradado_sin_nombre_17"/><linearGradient id="Degradado_sin_nombre_17-21" x1="173.681" y1="395.974" x2="367.415" y2="567.996" xlink:href="#Degradado_sin_nombre_17"/><linearGradient id="Degradado_sin_nombre_17-22" x1="184.151" y1="384.183" x2="377.885" y2="556.204" xlink:href="#Degradado_sin_nombre_17"/><linearGradient id="Degradado_sin_nombre_17-23" x1="194.621" y1="372.391" x2="388.354" y2="544.413" xlink:href="#Degradado_sin_nombre_17"/><linearGradient id="Degradado_sin_nombre_17-24" x1="205.091" y1="360.6" x2="398.824" y2="532.622" xlink:href="#Degradado_sin_nombre_17"/><linearGradient id="Degradado_sin_nombre_17-25" x1="140.794" y1="433.013" x2="334.527" y2="605.035" xlink:href="#Degradado_sin_nombre_17"/><linearGradient id="Degradado_sin_nombre_17-26" x1="151.263" y1="421.222" x2="344.997" y2="593.243" xlink:href="#Degradado_sin_nombre_17"/><linearGradient id="Degradado_sin_nombre_17-27" x1="161.733" y1="409.43" x2="355.466" y2="581.452" xlink:href="#Degradado_sin_nombre_17"/><linearGradient id="Degradado_sin_nombre_17-28" x1="172.203" y1="397.639" x2="365.936" y2="569.661" xlink:href="#Degradado_sin_nombre_17"/><linearGradient id="Degradado_sin_nombre_17-29" x1="182.673" y1="385.848" x2="376.406" y2="557.869" xlink:href="#Degradado_sin_nombre_17"/><linearGradient id="Degradado_sin_nombre_17-30" x1="193.143" y1="374.056" x2="386.876" y2="546.078" xlink:href="#Degradado_sin_nombre_17"/></defs><title>WEB 3final</title><g class="cls-1"><g id="Layer_1" data-name="Layer 1"><path class="cls-2" d="M16.155,3h1887.69A16.155,16.155,0,0,1,1920,19.16V1153.424a16.155,16.155,0,0,1-16.155,16.155H126.833A126.833,126.833,0,0,1,0,1042.746V19.16A16.155,16.155,0,0,1,16.155,3Z"/><path class="cls-3" d="M1878.258,780.485c43.036-123.587,42.864-323.73-86.136-417.211-134.687-97.6-353.6-38.2-454.922,76.81-117.808,133.731-27.62,287.03-168.568,459.654-95.435,116.883-196.785,120.089-189.767,156.605,15.44,80.345,522.181,148.536,788.723-108.664C1842.19,875.693,1869.469,805.723,1878.258,780.485Z"/><g class="cls-4"><path class="cls-5" d="M642.976,427.417c-72.608,0-131.679-59.07-131.679-131.679s59.071-131.677,131.679-131.677,131.677,59.07,131.677,131.677S715.583,427.417,642.976,427.417Zm0-258.257A126.579,126.579,0,1,0,769.553,295.738,126.722,126.722,0,0,0,642.976,169.16Z"/><path class="cls-5" d="M642.976,415.445A119.707,119.707,0,1,1,762.681,295.738,119.843,119.843,0,0,1,642.976,415.445Zm0-234.313A114.607,114.607,0,1,0,757.581,295.738,114.737,114.737,0,0,0,642.976,181.132Z"/><path class="cls-6" d="M642.976,403.473A107.735,107.735,0,1,1,750.711,295.738,107.858,107.858,0,0,1,642.976,403.473Zm0-210.369A102.635,102.635,0,1,0,745.611,295.738,102.75,102.75,0,0,0,642.976,193.1Z"/><path class="cls-7" d="M642.976,391.5a95.763,95.763,0,1,1,95.763-95.763A95.871,95.871,0,0,1,642.976,391.5Zm0-186.426a90.663,90.663,0,1,0,90.663,90.663A90.765,90.765,0,0,0,642.976,205.075Z"/><path class="cls-8" d="M642.976,379.53a83.792,83.792,0,1,1,83.791-83.792A83.886,83.886,0,0,1,642.976,379.53Zm0-162.483a78.692,78.692,0,1,0,78.691,78.691A78.78,78.78,0,0,0,642.976,217.047Z"/><path class="cls-8" d="M642.976,367.558a71.82,71.82,0,1,1,71.819-71.82A71.9,71.9,0,0,1,642.976,367.558Zm0-138.539A66.72,66.72,0,1,0,709.7,295.738,66.795,66.795,0,0,0,642.976,229.019Z"/><path class="cls-9" d="M642.976,355.587a59.848,59.848,0,1,1,59.846-59.849A59.917,59.917,0,0,1,642.976,355.587Zm0-114.6a54.749,54.749,0,1,0,54.747,54.748A54.81,54.81,0,0,0,642.976,240.99Z"/><path class="cls-6" d="M642.976,343.615a47.876,47.876,0,1,1,47.876-47.877A47.932,47.932,0,0,1,642.976,343.615Zm0-90.653a42.777,42.777,0,1,0,42.777,42.776A42.825,42.825,0,0,0,642.976,252.962Z"/><path class="cls-7" d="M642.976,331.642a35.9,35.9,0,1,1,35.9-35.9A35.945,35.945,0,0,1,642.976,331.642Zm0-66.709a30.805,30.805,0,1,0,30.8,30.805A30.84,30.84,0,0,0,642.976,264.933Z"/><path class="cls-8" d="M642.976,319.671a23.933,23.933,0,1,1,23.932-23.933A23.959,23.959,0,0,1,642.976,319.671Zm0-42.766a18.834,18.834,0,1,0,18.833,18.833A18.854,18.854,0,0,0,642.976,276.9Z"/></g><g class="cls-10"><path class="cls-11" d="M309.941,482.631a4.857,4.857,0,1,1-4.856-4.856A4.857,4.857,0,0,1,309.941,482.631Z"/><path class="cls-12" d="M333.691,482.631a4.857,4.857,0,1,1-4.857-4.856A4.858,4.858,0,0,1,333.691,482.631Z"/><path class="cls-13" d="M357.44,482.631a4.857,4.857,0,1,1-4.856-4.856A4.857,4.857,0,0,1,357.44,482.631Z"/><path class="cls-14" d="M381.19,482.631a4.857,4.857,0,1,1-4.857-4.856A4.858,4.858,0,0,1,381.19,482.631Z"/><path class="cls-15" d="M404.939,482.631a4.857,4.857,0,1,1-4.856-4.856A4.857,4.857,0,0,1,404.939,482.631Z"/><path class="cls-16" d="M428.688,482.631a4.856,4.856,0,1,1-4.856-4.856A4.857,4.857,0,0,1,428.688,482.631Z"/><path class="cls-17" d="M309.941,506.7a4.857,4.857,0,1,1-4.856-4.856A4.857,4.857,0,0,1,309.941,506.7Z"/><path class="cls-18" d="M333.691,506.7a4.857,4.857,0,1,1-4.857-4.856A4.858,4.858,0,0,1,333.691,506.7Z"/><path class="cls-19" d="M357.44,506.7a4.857,4.857,0,1,1-4.856-4.856A4.857,4.857,0,0,1,357.44,506.7Z"/><path class="cls-20" d="M381.19,506.7a4.857,4.857,0,1,1-4.857-4.856A4.858,4.858,0,0,1,381.19,506.7Z"/><path class="cls-21" d="M404.939,506.7a4.857,4.857,0,1,1-4.856-4.856A4.857,4.857,0,0,1,404.939,506.7Z"/><path class="cls-22" d="M428.688,506.7a4.856,4.856,0,1,1-4.856-4.856A4.857,4.857,0,0,1,428.688,506.7Z"/><path class="cls-23" d="M309.941,530.762a4.857,4.857,0,1,1-4.856-4.857A4.856,4.856,0,0,1,309.941,530.762Z"/><path class="cls-24" d="M333.691,530.762a4.857,4.857,0,1,1-4.857-4.857A4.857,4.857,0,0,1,333.691,530.762Z"/><path class="cls-25" d="M357.44,530.762a4.857,4.857,0,1,1-4.856-4.857A4.856,4.856,0,0,1,357.44,530.762Z"/><path class="cls-26" d="M381.19,530.762a4.857,4.857,0,1,1-4.857-4.857A4.857,4.857,0,0,1,381.19,530.762Z"/><path class="cls-27" d="M404.939,530.762a4.857,4.857,0,1,1-4.856-4.857A4.856,4.856,0,0,1,404.939,530.762Z"/><path class="cls-28" d="M428.688,530.762a4.856,4.856,0,1,1-4.856-4.857A4.856,4.856,0,0,1,428.688,530.762Z"/><path class="cls-29" d="M309.941,554.827a4.857,4.857,0,1,1-4.856-4.856A4.856,4.856,0,0,1,309.941,554.827Z"/><path class="cls-30" d="M333.691,554.827a4.857,4.857,0,1,1-4.857-4.856A4.857,4.857,0,0,1,333.691,554.827Z"/><path class="cls-31" d="M357.44,554.827a4.857,4.857,0,1,1-4.856-4.856A4.856,4.856,0,0,1,357.44,554.827Z"/><path class="cls-32" d="M381.19,554.827a4.857,4.857,0,1,1-4.857-4.856A4.857,4.857,0,0,1,381.19,554.827Z"/><path class="cls-33" d="M404.939,554.827a4.857,4.857,0,1,1-4.856-4.856A4.856,4.856,0,0,1,404.939,554.827Z"/><path class="cls-34" d="M428.688,554.827a4.856,4.856,0,1,1-4.856-4.856A4.856,4.856,0,0,1,428.688,554.827Z"/><path class="cls-35" d="M309.941,578.892a4.857,4.857,0,1,1-4.856-4.856A4.857,4.857,0,0,1,309.941,578.892Z"/><path class="cls-36" d="M333.691,578.892a4.857,4.857,0,1,1-4.857-4.856A4.858,4.858,0,0,1,333.691,578.892Z"/><path class="cls-37" d="M357.44,578.892a4.857,4.857,0,1,1-4.856-4.856A4.857,4.857,0,0,1,357.44,578.892Z"/><path class="cls-38" d="M381.19,578.892a4.857,4.857,0,1,1-4.857-4.856A4.858,4.858,0,0,1,381.19,578.892Z"/><path class="cls-39" d="M404.939,578.892a4.857,4.857,0,1,1-4.856-4.856A4.857,4.857,0,0,1,404.939,578.892Z"/><path class="cls-40" d="M428.688,578.892a4.856,4.856,0,1,1-4.856-4.856A4.857,4.857,0,0,1,428.688,578.892Z"/></g></g></g></svg>