<svg xmlns="http://www.w3.org/2000/svg" viewBox="0 0 27.879 27.88"><defs><style>.cls-1{fill:#fff;}</style></defs><title>logos</title><g id="Layer_1" data-name="Layer 1"><path class="cls-1" d="M27.879,8.936A8.935,8.935,0,0,0,18.944,0H8.936A8.936,8.936,0,0,0,0,8.936V18.944A8.936,8.936,0,0,0,8.936,27.88H18.944a8.935,8.935,0,0,0,8.935-8.936ZM8.351,8.519C10.869,6.505,15.4,7,15.451,6.975c-4.18,2.041-1.515,5.448-3.678,7.124a2.885,2.885,0,0,1-4.291-.3C6.908,13.147,5.609,10.712,8.351,8.519Zm8.636,10.1c-.261.828-1.675,3.2-4.969,1.983-3.025-1.117-4.942-5.256-4.989-5.283,3.906,2.526,5.448-1.516,8-.53A2.885,2.885,0,0,1,16.987,18.618ZM14.6,11.626a2.885,2.885,0,0,1,2.323-3.62c.848-.191,3.607-.162,4.215,3.3.558,3.176-2.053,6.915-2.053,6.969C19.3,13.625,15.027,14.327,14.6,11.626Z"/></g></svg>