<svg xmlns="http://www.w3.org/2000/svg" viewBox="0 0 27.879 27.88"><defs><style>.cls-1{fill:#fff;}</style></defs><title>logos</title><g id="Layer_1" data-name="Layer 1"><path class="cls-1" d="M0,18.944A8.936,8.936,0,0,0,8.936,27.88H18.944a8.935,8.935,0,0,0,8.935-8.936V8.936A8.935,8.935,0,0,0,18.944,0H8.936A8.936,8.936,0,0,0,0,8.936Zm8.861-8.57a3.447,3.447,0,0,1,3.3,2.468,2.076,2.076,0,0,0,1.422.018,1.878,1.878,0,0,0,.61-.4,5.351,5.351,0,0,1,.484-1.226,3.57,3.57,0,1,1,1.673,1.137,5.523,5.523,0,0,1-.564.9,5.943,5.943,0,0,0,.093,2.092,3.422,3.422,0,0,1,1.2-.226,3.5,3.5,0,1,1-2.712,1.337,9.005,9.005,0,0,1-.351-1.923,3.61,3.61,0,0,1-1.794.091,3.454,3.454,0,1,1-3.355-4.259Z"/></g></svg>