<svg xmlns="http://www.w3.org/2000/svg" xmlns:xlink="http://www.w3.org/1999/xlink" viewBox="0 0 68.52 68.52"><defs><style>.cls-1,.cls-2,.cls-3,.cls-4,.cls-5{fill:none;stroke-linecap:round;stroke-linejoin:round;stroke-width:3px;}.cls-1{stroke:url(#Degradado_sin_nombre_26);}.cls-2{stroke:url(#Degradado_sin_nombre_26-2);}.cls-3{stroke:url(#Degradado_sin_nombre_26-3);}.cls-4{stroke:url(#Degradado_sin_nombre_26-4);}.cls-5{stroke:url(#Degradado_sin_nombre_26-5);}</style><linearGradient id="Degradado_sin_nombre_26" x1="34.26" y1="20.7" x2="34.26" y2="52.62" gradientUnits="userSpaceOnUse"><stop offset="0" stop-color="#14a9ff"/><stop offset="0.21" stop-color="#2b84ff"/><stop offset="1" stop-color="#8000ff"/></linearGradient><linearGradient id="Degradado_sin_nombre_26-2" x1="34.26" y1="29.58" x2="34.26" y2="46.27" xlink:href="#Degradado_sin_nombre_26"/><linearGradient id="Degradado_sin_nombre_26-3" x1="23.9" y1="15.9" x2="23.9" y2="29.8" xlink:href="#Degradado_sin_nombre_26"/><linearGradient id="Degradado_sin_nombre_26-4" x1="21.68" y1="22.64" x2="21.68" y2="29.8" xlink:href="#Degradado_sin_nombre_26"/><linearGradient id="Degradado_sin_nombre_26-5" x1="7701.82" y1="22.64" x2="7701.82" y2="29.8" gradientTransform="matrix(-1, 0, 0, 1, 8568.91, 0)" xlink:href="#Degradado_sin_nombre_26"/></defs><title>WEB 3final</title><g id="Layer_1" data-name="Layer 1"><path class="cls-1" d="M32.54,22.2h7.24a2,2,0,0,1,2,2l.06.1a4,4,0,0,0,3.51,2.12h0a4,4,0,0,1,4,4V47.15a4,4,0,0,1-4,4H23.21a4,4,0,0,1-4-4v-15"/><circle class="cls-2" cx="34.26" cy="37.93" r="6.84"/><line class="cls-3" x1="23.9" y1="17.4" x2="23.9" y2="28.3"/><line class="cls-4" x1="19.46" y1="24.14" x2="23.9" y2="28.3"/><line class="cls-5" x1="28.34" y1="24.14" x2="23.9" y2="28.3"/></g></svg>